<?xml version="1.0" encoding="UTF-8"?>
<svg width="1200pt" height="1200pt" version="1.1" viewBox="0 0 1200 1200" xmlns="http://www.w3.org/2000/svg">
 <path d="m1200 562.5v75c0 4.9727-1.9766 9.7422-5.4922 13.258-3.5156 3.5156-8.2852 5.4922-13.258 5.4922h-367.23l42.992 42.992c3.5156 3.5156 5.4922 8.2852 5.4922 13.258s-1.9766 9.7422-5.4922 13.258l-56.25 56.25c-3.5156 3.5156-8.2852 5.4922-13.258 5.4922s-9.7422-1.9766-13.258-5.4922l-168.75-168.75c-3.5156-3.5156-5.4922-8.2852-5.4922-13.258s1.9766-9.7422 5.4922-13.258l168.75-168.75c3.5156-3.5156 8.2852-5.4922 13.258-5.4922s9.7422 1.9766 13.258 5.4922l56.25 56.25c3.5156 3.5156 5.4922 8.2852 5.4922 13.258s-1.9766 9.7422-5.4922 13.258l-42.992 42.992h367.23c4.9727 0 9.7422 1.9766 13.258 5.4922 3.5156 3.5156 5.4922 8.2852 5.4922 13.258zm-262.5-56.25v-375c-0.015625-4.9688-1.9961-9.7305-5.5078-13.242-3.5117-3.5117-8.2734-5.4922-13.242-5.5078h-431.25v975h431.25c4.9688-0.015625 9.7305-1.9961 13.242-5.5078 3.5117-3.5117 5.4922-8.2734 5.5078-13.242v-375h-40.688c3.5117 10.016 4.125 20.82 1.7695 31.168-2.3555 10.348-7.582 19.82-15.082 27.332l-56.25 56.25c-10.531 10.562-24.832 16.5-39.75 16.5s-29.219-5.9375-39.75-16.5l-168.75-168.75c-10.562-10.531-16.5-24.832-16.5-39.75s5.9375-29.219 16.5-39.75l168.75-168.75c10.531-10.562 24.832-16.5 39.75-16.5s29.219 5.9375 39.75 16.5l56.25 56.25c7.5 7.5117 12.727 16.984 15.082 27.332 2.3555 10.348 1.7422 21.152-1.7695 31.168zm-487.5-487.5v1162.5c0.003906 6.0195-2.8828 11.672-7.7617 15.199-4.8789 3.5273-11.152 4.5-16.867 2.6133l-412.5-136.25c-3.7461-1.2344-7.0078-3.625-9.3203-6.8203-2.3086-3.1992-3.5508-7.0469-3.5508-10.992v-890c0-3.9453 1.2422-7.793 3.5508-10.992 2.3125-3.1953 5.5742-5.5859 9.3203-6.8203l412.5-136.25c5.7148-1.8867 11.988-0.91406 16.867 2.6133 4.8789 3.5273 7.7656 9.1797 7.7617 15.199zm-75 581.25c0-14.918-5.9258-29.227-16.477-39.773-10.547-10.551-24.855-16.477-39.773-16.477s-29.227 5.9258-39.773 16.477c-10.551 10.547-16.477 24.855-16.477 39.773s5.9258 29.227 16.477 39.773c10.547 10.551 24.855 16.477 39.773 16.477 14.914-0.015625 29.211-5.9492 39.758-16.492 10.543-10.547 16.477-24.844 16.492-39.758zm-56.25-18.75c-4.9727 0-9.7422 1.9766-13.258 5.4922-3.5156 3.5156-5.4922 8.2852-5.4922 13.258s1.9766 9.7422 5.4922 13.258c3.5156 3.5156 8.2852 5.4922 13.258 5.4922s9.7422-1.9766 13.258-5.4922c3.5156-3.5156 5.4922-8.2852 5.4922-13.258-0.003906-4.9727-1.9805-9.7383-5.4961-13.254s-8.2812-5.4922-13.254-5.4961z" fill="#fff"/>
</svg>
